# xmcd
#
# Track frame offsets: 
#        150
#        11640
#        22652
#        36887
#        46017
#        60977
#        73942
#        85980
#        109417
#        119817
#        134720
#        147020
#        158890
#        172077
#        186730
#        201170
#        213610
#        225755
#        238980
#        253250
#
# Disc length: 3563 seconds
#
# Revision: 2
# Processed by: cddbd v1.5.2PL0 Copyright (c) Steve Scherf et al.
# Submitted via: ExactAudioCopy v1.1
#
DISCID=2d0de914
DTITLE=Ela Fitzgerald - The Magic of Ela Fitzgerald Disc 3
DYEAR=1998
DGENRE=Jazz
TTITLE0=Ella Fitzgerald - That OId Black Magic
TTITLE1=Ella Fitzgerald - Goody Goody
TTITLE2=Ella Fitzgerald - Oh, Lady Be Good
TTITLE3=Ella Fitzgerald - Lover, Come Back To Me
TTITLE4=Ella Fitzgerald - Stairway To The Stars
TTITLE5=Ella Fitzgerald - Lullaby Of Birdland
TTITLE6=Ella Fitzgerald - A-Tisket, A-Tasket
TTITLE7=Ella Fitzgerald - You'll Have To Swing It (Mister Paganini - P
TTITLE7=arts 1 and 2)
TTITLE8=Ella Fitzgerald - Between The Devil And The Deep Blue Sea
TTITLE9=Ella Fitzgerald - I've Got The World On A String
TTITLE10=Ella Fitzgerald - Baby, It's Cold Outside
TTITLE11=Ella Fitzgerald - It's Only A Paper Moon
TTITLE12=Ella Fitzgerald - You Won't Be Satisfied
TTITLE13=Ella Fitzgerald - Ain't Nobody's Business But My Own
TTITLE14=Ella Fitzgerald - Can Anyone Explain ? (No, No, No!)
TTITLE15=Ella Fitzgerald - I'm Beginning To See The Light
TTITLE16=Ella Fitzgerald - Stone Cold Dead In The Market (He Had It Co
TTITLE16=ming)
TTITLE17=Ella Fitzgerald - Cow Cow Boogie
TTITLE18=Ella Fitzgerald - Into Each Life Some Rain Must Fall
TTITLE19=Ella Fitzgerald - Dream A Little Dream Of Me
EXTD=
EXTT0=
EXTT1=
EXTT2=
EXTT3=
EXTT4=
EXTT5=
EXTT6=
EXTT7=
EXTT8=
EXTT9=
EXTT10=
EXTT11=
EXTT12=
EXTT13=
EXTT14=
EXTT15=
EXTT16=
EXTT17=
EXTT18=
EXTT19=
PLAYORDER=
